<?xml version="1.0" encoding="UTF-8" standalone="no"?>
<!-- Created with Inkscape (http://www.inkscape.org/) -->
<svg
   xmlns:svg="http://www.w3.org/2000/svg"
   xmlns="http://www.w3.org/2000/svg"
   version="1.0"
   width="566.92914"
   height="566.92914"
   id="svg2166">
  <defs
     id="defs2168" />
  <g
     id="layer1">
    <g
       transform="matrix(3.543307e-5,0,0,3.543307e-5,-1.326405e-4,-9.720741e-5)"
       style="fill-rule:evenodd"
       id="Ebene_x0020_1">
  
  <g
   id="_210056528">
   <rect
   width="15000000"
   height="15000000"
   x="500004"
   y="500003"
   style="fill:#49b149"
   id="_209675984" />

   <path
   d="M 10991400,12589800 L 10623900,12589800 C 10607910,12486510 10574630,12394480 10524030,12313700 C 10473430,12232930 10412180,12164720 10340270,12109110 C 10268370,12053490 10189140,12011120 10102590,11981980 C 10016050,11952850 9928830,11938290 9840940,11938290 C 9782360,11938290 9726430,11943580 9673160,11954170 C 9619910,11964770 9572640,11983310 9531360,12009790 C 9490080,12036280 9456790,12071370 9431490,12115070 C 9406190,12158770 9393540,12213720 9393540,12279930 C 9393540,12343490 9418170,12393820 9467440,12430890 C 9516710,12467980 9581950,12499100 9663180,12524250 C 9744410,12549410 9836950,12571930 9940810,12591790 C 10044670,12611650 10150530,12634160 10258380,12659330 C 10366240,12684480 10472100,12716930 10575960,12756650 C 10679820,12796380 10772360,12848030 10853590,12911590 C 10934810,12975150 11000050,13055930 11049320,13153920 C 11098590,13251920 11123230,13371090 11123230,13511470 C 11123230,13670370 11091930,13804120 11029350,13912710 C 10966770,14021290 10883550,14108690 10779690,14174900 C 10675830,14241110 10557980,14288790 10426160,14317920 C 10294340,14347050 10159190,14361620 10020700,14361620 C 9866240,14361620 9714440,14343740 9565310,14307990 C 9416180,14272230 9277700,14208010 9149870,14115310 L 9046010,14325870 L 8710460,14325870 L 8710460,13285020 L 9081960,13285020 C 9095280,13388310 9125900,13483660 9173840,13571060 C 9221780,13658460 9283690,13733270 9359590,13795520 C 9435490,13857750 9524030,13906080 9625230,13940520 C 9726430,13974940 9835620,13992160 9952790,13992160 C 10003390,13992160 10055990,13984880 10110580,13970310 C 10165180,13955750 10215110,13934550 10260380,13906750 C 10305650,13878940 10342270,13843180 10370230,13799480 C 10398200,13755780 10412180,13706130 10412180,13650510 C 10412180,13555170 10369570,13484980 10284350,13439960 C 10199130,13394940 10092610,13357850 9964780,13328720 C 9836950,13299590 9697800,13270450 9547340,13241320 C 9396870,13212190 9257730,13167160 9129890,13106250 C 9002070,13045340 8895540,12960580 8810320,12852000 C 8725100,12743410 8682500,12593770 8682500,12403090 C 8682500,12238880 8716450,12103150 8784360,11995890 C 8852260,11888620 8940820,11803210 9050010,11739650 C 9159190,11676080 9281690,11631720 9417510,11606560 C 9553330,11581400 9690480,11568830 9828960,11568830 C 9964780,11568830 10096600,11589340 10224430,11630400 C 10352260,11671450 10473430,11727730 10587940,11799240 L 10659840,11612520 L 10991400,11612520 L 10991400,12589800 z M 7472180,13327880 L 7480170,13327880 L 7480170,12156780 C 7480170,12050840 7447700,11997870 7343900,11997870 L 7100230,11997870 L 7100230,11648270 L 8330580,11648270 L 8330580,11997870 L 8090900,11997870 C 7987050,11997870 7954630,12050850 7954630,12156780 L 7954630,14282170 L 7128190,14282170 L 6076240,12498370 L 6068250,12498370 L 6068250,13773660 C 6068250,13879510 6120190,13932570 6224050,13932570 L 6409150,13932570 L 6409150,14282170 L 5174810,14282170 L 5174810,13932570 L 5379440,13932570 C 5483300,13932570 5535230,13879600 5535230,13773660 L 5535230,12156780 C 5535230,12050840 5483280,11997870 5379440,11997870 L 5170810,11997870 L 5170810,11648270 L 6457090,11648270 L 7472180,13327880 z M 3820600,11648270 L 4527260,13634620 C 4547010,13695530 4566760,13745190 4586510,13783590 C 4606250,13822000 4627420,13852460 4649980,13874960 C 4672540,13897480 4697240,13912710 4724030,13920650 C 4750810,13928580 4704460,13932570 4741130,13932570 L 4885010,13932570 L 4885010,14282170 L 3418610,14282170 L 3418610,13932570 L 3545550,13932570 C 3610440,13932570 3665450,13927940 3710580,13918660 C 3755730,13909400 3778290,13894170 3778290,13872980 C 3778290,13851790 3776870,13829940 3774050,13807430 C 3771240,13784910 3765590,13759090 3757130,13729960 L 3668270,13443930 L 2805040,13443930 L 2754270,13602840 C 2731700,13671700 2715480,13724000 2705600,13759760 C 2695730,13795520 2690790,13827950 2690790,13857090 C 2690790,13872980 2699260,13885560 2716180,13894830 C 2733110,13904100 2754270,13912050 2779650,13918660 C 2805040,13925290 2833250,13929260 2864290,13930580 C 2895310,13931900 2846840,13932570 2875050,13932570 L 2997770,13932570 L 2997770,14282170 L 1831790,14282170 L 1831790,13932570 L 1975670,13932570 C 2012340,13932570 2044080,13928600 2070880,13920650 C 2097680,13912710 2122360,13897480 2144930,13874960 C 2167490,13852460 2187950,13822000 2206290,13783590 C 2224620,13745190 2245070,13695530 2267640,13634620 L 2974300,11648270 L 3820600,11648270 z M 2927760,13094330 L 3541330,13094330 L 3236660,12240200 L 3228190,12240200 L 2927760,13094330 z M 13171960,11648270 L 13878620,13634620 C 13898360,13695530 13918110,13745190 13937860,13783590 C 13957610,13822000 13978770,13852460 14001330,13874960 C 14023900,13897480 14048600,13912710 14075380,13920650 C 14102170,13928580 14055810,13932570 14092480,13932570 L 14236360,13932570 L 14236360,14282170 L 12769960,14282170 L 12769960,13932570 L 12896900,13932570 C 12961790,13932570 13016800,13927940 13061930,13918660 C 13107080,13909400 13129640,13894170 13129640,13872980 C 13129640,13851790 13128230,13829940 13125410,13807430 C 13122590,13784910 13116940,13759090 13108480,13729960 L 13019620,13443930 L 12156390,13443930 L 12105620,13602840 C 12083050,13671700 12066830,13724000 12056950,13759760 C 12047080,13795520 12042150,13827950 12042150,13857090 C 12042150,13872980 12050610,13885560 12067530,13894830 C 12084460,13904100 12105620,13912050 12131010,13918660 C 12156390,13925290 12184600,13929260 12215640,13930580 C 12246660,13931900 12198190,13932570 12226400,13932570 L 12349120,13932570 L 12349120,14282170 L 11183150,14282170 L 11183150,13932570 L 11327020,13932570 C 11363690,13932570 11395440,13928600 11422230,13920650 C 11449030,13912710 11473710,13897480 11496280,13874960 C 11518840,13852460 11539300,13822000 11557640,13783590 C 11575970,13745190 11596430,13695530 11618990,13634620 L 12325650,11648270 L 13171960,11648270 z M 12279110,13094330 L 12892680,13094330 L 12588010,12240200 L 12579540,12240200 L 12279110,13094330 z "
   style="fill:white;fill-opacity:1"
   id="_208280336" />

  </g>

 </g>
  </g>
</svg>
