<svg xmlns="http://www.w3.org/2000/svg" id="Livello_1" data-name="Livello 1" viewBox="0 0 467.74 118"><defs><style> .cls-1 { fill: #fff; } .cls-2 { fill: #d2d8e1; } .cls-3 { fill: #9eacbb; } .cls-4 { fill: #5c7488; } .cls-5 { fill: #3b596d; } </style></defs><g><g><path class="cls-2" d="M24.36,36.63h17.24v55.13h32.52v13.55H24.36V36.63Z"></path><path class="cls-1" d="M101.01,51.9h-29.63v15.17h33.13v12.88h-50.01V12.68h48.31v12.88h-31.43v13.47h29.63v12.88Z"></path></g><polygon class="cls-1" points="41.91 32.52 24.06 32.52 32.98 19.86 41.91 32.52"></polygon></g><rect class="cls-5" y="-3.72" width="123.88" height="125.44"></rect><g><path class="cls-2" d="M24.36,36.63h17.24v55.13h32.52v13.55H24.36V36.63Z"></path><path class="cls-1" d="M101.01,51.9h-29.63v15.17h33.13v12.88h-50.01V12.68h48.31v12.88h-31.43v13.47h29.63v12.88Z"></path></g><g><path class="cls-4" d="M136.88,12.72h11.13v33.13h15.93v9.56h-27.06V12.72Z"></path><path class="cls-4" d="M205.57,33.62c0,13.75-7.99,22.49-20.78,22.49s-19.92-9.94-19.92-21.79c0-12.48,7.87-22.36,20.6-22.36s20.11,10.2,20.11,21.66ZM176.6,34.07c0,8.04,3.38,12.99,8.73,12.99s8.49-5.38,8.49-13.11-3.2-12.92-8.61-12.92-8.61,5.19-8.61,13.05Z"></path><path class="cls-4" d="M244.62,40.15c-.18-4.88-.25-10.58-.25-17.23h-.18c-1.29,5.64-3.01,12.03-4.37,16.72l-4.12,14.88h-8.67l-3.44-14.82c-1.11-4.62-2.34-10.96-3.32-16.79h-.12c-.25,6.02-.43,12.35-.61,17.23l-.68,15.26h-10.21l2.58-42.69h14.94l2.71,11.46c1.17,4.75,2.4,10.45,3.26,15.65h.18c1.17-5.19,2.52-11.21,3.75-15.71l3.14-11.4h14.57l2.09,42.69h-10.76l-.49-15.26Z"></path><path class="cls-4" d="M261.29,13.29c2.52-.44,7.99-.89,13.1-.89,5.9,0,9.47.44,12.67,2.09,3.26,1.52,5.6,4.62,5.6,8.8,0,3.55-1.91,7.03-6.76,8.93v.13c5.04,1.46,8.12,5.32,8.12,10.39,0,4.05-1.91,7.22-4.67,9.31-3.08,2.41-8.24,3.86-17.1,3.86-5.04,0-8.73-.32-10.95-.7V13.29ZM272.3,29.13h2.21c4.74,0,7.01-1.71,7.01-4.43,0-2.47-1.84-4.05-5.6-4.05-1.84,0-2.89.06-3.63.25v8.23ZM272.3,47.43c.8.13,1.78.13,3.2.13,3.69,0,6.83-1.52,6.83-5.32s-3.2-5-7.38-5h-2.64v10.2Z"></path><path class="cls-4" d="M308.27,45.53l-2.34,9.88h-11.5l11.99-42.69h14.82l12.36,42.69h-11.99l-2.64-9.88h-10.7ZM317.44,37.11l-1.91-7.66c-.62-2.41-1.41-5.95-2.09-8.42h-.12c-.62,2.47-1.23,6.02-1.78,8.42l-1.78,7.66h7.69Z"></path><path class="cls-4" d="M336.44,13.29c3.14-.51,7.87-.89,13.41-.89,6.33,0,10.88.89,14.02,3.29,2.64,2.15,4.06,5.19,4.06,9.31,0,5.32-3.87,9.06-7.07,10.33v.19c2.71,1.27,4.24,3.99,5.29,7.66,1.23,4.37,2.58,10.58,3.38,12.22h-11.31c-.62-1.27-1.72-4.56-2.89-9.88-1.11-5.07-2.64-6.14-6.09-6.14h-1.78v16.02h-11.01V13.29ZM347.45,31.15h2.89c4.18,0,6.58-2.09,6.58-5.26s-2.03-5-5.72-5c-2.09,0-3.2.06-3.75.25v10.01Z"></path><path class="cls-4" d="M372.97,13.36c3.5-.63,8.24-.95,13.16-.95,7.99,0,12.98,1.33,17.1,4.24,4.55,3.23,7.5,8.55,7.5,16.41,0,8.74-3.2,14.38-7.26,17.61-4.55,3.61-11.38,5.26-19.49,5.26-5.29,0-8.92-.38-11.01-.7V13.36ZM384.04,46.93c.55.13,1.6.13,2.34.13,7.2.06,12.54-3.99,12.54-13.62,0-8.36-4.8-12.29-11.5-12.29-1.72,0-2.83.13-3.38.25v25.53Z"></path><path class="cls-4" d="M426.11,12.72v42.69h-11.13V12.72h11.13Z"></path><path class="cls-4" d="M442.4,45.53l-2.34,9.88h-11.5l11.99-42.69h14.82l12.36,42.69h-11.99l-2.64-9.88h-10.7ZM451.57,37.11l-1.91-7.66c-.62-2.41-1.41-5.95-2.09-8.42h-.12c-.62,2.47-1.23,6.02-1.78,8.42l-1.78,7.66h7.69Z"></path></g><g><path class="cls-3" d="M166.28,87.84h-17.26v7.46h19.28v9.86h-31.19v-43.74h30.24v9.86h-18.33v6.68h17.26v9.86Z"></path><path class="cls-3" d="M210.89,103.87c-1.76.91-6.3,2.08-12.1,2.08-17.2,0-24.89-10.19-24.89-21.93,0-15.19,11.59-23.36,25.52-23.36,5.48,0,10.08,1.04,12.16,2.21l-2.46,9.47c-2.14-.91-5.29-1.82-9.26-1.82-7.12,0-13.42,3.96-13.42,12.65,0,7.53,4.98,12.79,13.73,12.79,3.28,0,6.87-.65,8.88-1.49l1.83,9.41Z"></path><path class="cls-3" d="M261.66,83.03c0,13.24-9.01,22.91-23.63,22.91s-22.49-9.67-22.49-22.26c0-13.37,9.32-23.04,23.25-23.04s22.87,9.54,22.87,22.39ZM228.21,83.36c0,7.53,4.03,13.11,10.46,13.11s10.33-5.58,10.33-13.11-4.03-13.24-10.4-13.24-10.4,5.71-10.4,13.24Z"></path><path class="cls-3" d="M269.16,105.16v-43.74h14.93l6.99,12.65c2.71,4.87,5.36,10.84,7.5,16.55h.19c-.76-6.49-.82-11.81-.82-17.78v-11.42h11.03v43.74h-13.04l-7.69-14.47c-2.71-5.06-5.73-10.97-8.19-16.94h-.25c.32,6.62.38,12.98.38,19.6v11.81h-11.03Z"></path><path class="cls-3" d="M362.59,83.03c0,13.24-9.01,22.91-23.63,22.91s-22.49-9.67-22.49-22.26c0-13.37,9.32-23.04,23.25-23.04s22.87,9.54,22.87,22.39ZM329.13,83.36c0,7.53,4.03,13.11,10.46,13.11s10.33-5.58,10.33-13.11-4.03-13.24-10.4-13.24-10.4,5.71-10.4,13.24Z"></path><path class="cls-3" d="M408.89,88.87c-.13-5.45-.19-11.49-.19-19.08h-.19c-1.51,6.23-3.53,13.11-5.17,18.62l-4.6,15.83h-9.51l-3.78-15.77c-1.26-5.39-2.65-12.2-3.78-18.69h-.13c-.25,6.68-.44,13.63-.63,19.08l-.63,16.29h-11.21l2.39-43.74h17.01l2.83,11.03c1.2,4.67,2.52,10.71,3.46,16.22h.25c1.39-5.52,2.96-12.01,4.28-16.35l3.34-10.9h16.57l1.95,43.74h-11.84l-.44-16.29Z"></path><path class="cls-3" d="M440.27,105.16v-18.24l-14.74-25.5h13.92l3.97,9.73c1.32,3.18,2.14,5.06,3.21,7.79h.13c1.01-2.53,1.95-4.74,3.15-7.72l3.97-9.8h13.74l-15.44,25.05v18.69h-11.91Z"></path></g><polygon class="cls-1" points="41.91 32.52 24.06 32.52 32.98 19.86 41.91 32.52"></polygon></svg>